<?xml version="1.0" ?><!DOCTYPE svg  PUBLIC '-//W3C//DTD SVG 1.1//EN'  'http://www.w3.org/Graphics/SVG/1.1/DTD/svg11.dtd'><svg enable-background="new 0 0 128 128" id="Слой_1" version="1.1" viewBox="0 0 128 128" xml:space="preserve" xmlns="http://www.w3.org/2000/svg" xmlns:xlink="http://www.w3.org/1999/xlink"><g><path d="M65.905,56.999C65.694,56.392,65.143,56,64.5,56s-1.194,0.392-1.404,0.999l-4.733,13.613l-14.41,0.293   c-0.643,0.014-1.186,0.417-1.384,1.028c-0.198,0.61,0.004,1.255,0.516,1.644l11.485,8.708l-4.174,13.796   c-0.137,0.456-0.055,0.934,0.227,1.313c0.463,0.624,1.403,0.786,2.047,0.337l11.83-8.232l11.83,8.232   C76.582,97.907,76.876,98,77.178,98c0.469,0,0.917-0.227,1.199-0.605c0.281-0.379,0.364-0.858,0.226-1.314l-4.174-13.795   l11.485-8.708c0.512-0.388,0.714-1.033,0.516-1.644c-0.198-0.611-0.741-1.015-1.384-1.028l-14.409-0.293L65.905,56.999z    M72.937,80.907c-0.493,0.373-0.705,1.022-0.526,1.616l3.85,12.725l-10.913-7.594c-0.25-0.173-0.544-0.266-0.849-0.266   s-0.598,0.092-0.85,0.267l-10.912,7.593l3.85-12.726c0.178-0.592-0.033-1.241-0.526-1.614L45.47,72.875l13.29-0.271   c0.619-0.012,1.172-0.414,1.375-0.999L64.5,59.049l4.365,12.557c0.203,0.585,0.756,0.986,1.374,0.999l13.292,0.271L72.937,80.907z" fill="#323638"/><path d="M108.992,18.129c-0.479-0.271-1.09-0.103-1.363,0.378L86.018,56.716C80.438,51.326,72.852,48,64.5,48   c-1.507,0-2.987,0.114-4.437,0.322l16.307-28.83c0.271-0.48,0.103-1.091-0.378-1.363c-0.479-0.271-1.09-0.103-1.363,0.378L64,37.3   L53.371,18.508c-0.272-0.48-0.883-0.65-1.363-0.378c-0.481,0.272-0.65,0.882-0.378,1.363l11.222,19.839l-5.114,9.042   c-0.073,0.129-0.109,0.268-0.121,0.407c-5.889,1.341-11.145,4.359-15.235,8.53L20.37,18.507c-0.273-0.481-0.882-0.649-1.363-0.376   s-0.649,0.883-0.376,1.363l22.331,39.368C36.316,64.283,33.5,71.317,33.5,79c0,17.093,13.907,31,31,31s31-13.907,31-31   c0-7.993-3.042-15.289-8.028-20.792l21.898-38.715C109.642,19.012,109.473,18.401,108.992,18.129z M64.5,108   c-15.991,0-29-13.009-29-29s13.009-29,29-29s29,13.009,29,29S80.491,108,64.5,108z" fill="#323638"/></g></svg>